<svg xmlns="http://www.w3.org/2000/svg" version="1.1" xmlns:xlink="http://www.w3.org/1999/xlink" xmlns:svgjs="http://svgjs.dev/svgjs" width="0" height="0" viewBox="0 0 1500 481"><g transform="matrix(1,0,0,1,-0.9090909090909918,0.2544757252133536)"><svg viewBox="0 0 396 127" data-background-color="#171717" preserveAspectRatio="xMidYMid meet" height="481" width="1500" xmlns="http://www.w3.org/2000/svg" xmlns:xlink="http://www.w3.org/1999/xlink"><g id="tight-bounds" transform="matrix(1,0,0,1,0.2400000000000091,-0.06719005634531072)"><svg viewBox="0 0 395.52 127.13427666140419" height="127.13427666140419" width="395.52"><g><svg viewBox="0 0 631.6902232803939 203.04783477658216" height="127.13427666140419" width="395.52"><g transform="matrix(1,0,0,1,0,73.46313314608791)"><svg viewBox="0 0 395.52 56.121568484406346" height="56.121568484406346" width="395.52"><g id="textblocktransform"><svg viewBox="0 0 395.52 56.121568484406346" height="56.121568484406346" width="395.52" id="textblock"><g><svg viewBox="0 0 395.52 56.121568484406346" height="56.121568484406346" width="395.52"><g transform="matrix(1,0,0,1,0,0)"><svg width="395.52" viewBox="1.9 -38.3 274.13 38.9" height="56.121568484406346" data-palette-color="#ffffff"><path d="M27.45-32.2L27.45-33.4 37.55-33.4 37.55-32.2 34.05-31.05 34.05 0 31.3 0 8.4-27.45 8.4-2.45 12.55-1.2 12.55 0 2.25 0 2.25-1.2 6.25-2.45 6.25-31.75 1.9-32.25 1.9-33.4 10.1-33.4 31.3-7.75 31.3-31.05 27.45-32.2ZM52.8 0.55Q47.65 0.55 44.5-2.95 41.35-6.45 41.35-12.2 41.35-17.95 44.67-21.45 48-24.95 53.05-24.95 58.1-24.95 60.6-22.68 63.1-20.4 63.1-16.35L63.1-16.35Q63.1-15.15 62.9-13.95L62.9-13.95 46.75-13.95 46.75-12.2Q46.75-6.6 48.35-3.73 49.95-0.85 53.6-0.85L53.6-0.85Q58.75-0.85 61.55-5.35L61.55-5.35Q62.65-5 62.65-4.3L62.65-4.3Q62.65-3.05 60.35-1.4L60.35-1.4Q59.25-0.6 57.25-0.03 55.25 0.55 52.8 0.55L52.8 0.55ZM58.35-17.4L58.35-17.4Q58.35-19.7 57.4-21.35L57.4-21.35Q56.1-23.55 53.2-23.55L53.2-23.55Q47.8-23.55 46.9-15.75L46.9-15.75 58.25-15.75Q58.35-16.6 58.35-17.4ZM65.2-23.2L65.2-24.4 75.5-24.4 75.5-23.25 72.2-22.85 79.3-5.35 83.7-17 81.25-22.85 79.2-23.1 79.2-24.4 89.3-24.4 89.3-23.25 85.95-22.85 93.1-5.35 99.3-22.15 96.05-23.1 96.05-24.4 104.45-24.4 104.45-23.1 101.4-22.15 92.9 0 90.9 0 84.8-14.45 79.1 0 77.1 0 67.45-22.85 65.2-23.2ZM127.29-26.05L125.59-31.75Q122.89-32.7 120.04-32.7 117.19-32.7 115.04-31.08 112.89-29.45 112.89-26.25L112.89-26.25Q112.89-23.15 115.54-21.5L115.54-21.5Q116.99-20.6 117.92-20.2 118.84-19.8 120.62-19.15 122.39-18.5 123.04-18.23 123.69-17.95 124.97-17.38 126.24-16.8 126.87-16.35 127.49-15.9 128.39-15.1 129.29-14.3 129.74-13.5L129.74-13.5Q130.84-11.45 130.84-9.05L130.84-9.05Q130.84-4.8 127.39-2.1 123.94 0.6 118.44 0.6L118.44 0.6Q114.24 0.6 110.59-0.8L110.59-0.8Q108.79-1.45 107.64-2.6 106.49-3.75 106.49-5.25L106.49-5.25Q106.49-7.7 110.04-8.6L110.04-8.6Q110.59-5.6 112.14-3.75 113.69-1.9 115.37-1.3 117.04-0.7 119.47-0.7 121.89-0.7 124.04-2.27 126.19-3.85 126.19-7.45L126.19-7.45Q126.19-10.2 123.69-11.95L123.69-11.95Q121.69-13.3 118.77-14.5 115.84-15.7 114.84-16.13 113.84-16.55 112.27-17.48 110.69-18.4 109.94-19.3L109.94-19.3Q107.99-21.65 107.99-24.7L107.99-24.7Q107.99-29.4 111.34-31.8 114.69-34.2 120.59-34.2L120.59-34.2Q124.14-34.2 128.84-33.4L128.84-33.4 128.84-26.05 127.29-26.05ZM151.09-24.75L151.09-24.75Q159.09-24.75 159.09-17.05L159.09-17.05Q159.09-11.5 158.74-1.45L158.74-1.45 162.29-1.2 162.29 0 151.14 0 151.14-1.2 153.84-1.4Q154.19-14.6 154.19-17.43 154.19-20.25 153.14-21.65 152.09-23.05 149.52-23.05 146.94-23.05 144.69-20.6 142.44-18.15 142.44-16.1L142.44-16.1 142.44-1.45 145.74-1.2 145.74 0 134.24 0 134.24-1.2 137.54-1.45 137.54-35.9 133.14-36.1 133.09-37.25 142.44-38.3Q142.14-21.15 142.09-20L142.09-20 142.49-20Q143.84-22.3 146.12-23.53 148.39-24.75 151.09-24.75ZM170.19-5.4L170.19-5.4Q170.19-2.15 172.84-1.55L172.84-1.55Q173.44-1.4 173.99-1.4L173.99-1.4Q175.89-1.4 177.94-3.03 179.99-4.65 180.09-7.4L180.09-7.4 180.09-11.7Q170.19-11.6 170.19-5.4ZM172.19 0.6L172.19 0.6Q169.34 0.6 167.31-0.98 165.29-2.55 165.29-5.4L165.29-5.4Q165.34-9.25 169.16-11.15 172.99-13.05 180.09-13.05L180.09-13.05 180.09-17.35Q180.09-23.7 175.49-23.7L175.49-23.7Q173.14-23.7 171.69-21.75L171.69-21.75Q170.69-20.4 170.69-18.4L170.69-18.4Q170.69-17.55 170.89-16.6L170.89-16.6Q170.19-16.1 169.46-16.1 168.74-16.1 168.04-16.4L168.04-16.4Q166.44-17 166.44-18.7L166.44-18.7Q166.44-21 168.09-22.5L168.09-22.5Q170.79-24.95 175.54-24.95 180.29-24.95 182.44-22.93 184.59-20.9 184.59-16.55L184.59-16.55 184.59-1.4 188.79-1.2 188.84-0.05 180.49 0.55 180.04-3.9Q177.74 0.6 172.19 0.6ZM200.24-0.7L200.24-0.7Q202.24-0.7 203.71-1.8 205.19-2.9 205.19-5.5L205.19-5.5Q205.19-7.25 203.61-8.4 202.04-9.55 199.69-10.48 197.34-11.4 196.51-11.78 195.69-12.15 194.34-13L194.34-13Q191.89-14.65 191.89-17.75 191.89-20.85 194.34-22.9 196.79-24.95 201.49-24.95L201.49-24.95Q204.49-24.95 206.61-23.63 208.74-22.3 208.74-20.45 208.74-18.6 207.34-17.9L207.34-17.9Q206.59-17.55 205.86-17.55 205.14-17.55 204.44-17.85L204.44-17.85Q204.64-18.75 204.64-19.8 204.64-20.85 204.14-21.9L204.14-21.9Q203.29-23.7 200.89-23.7 198.49-23.7 197.24-22.4 195.99-21.1 195.99-19L195.99-19Q195.99-16.85 197.79-15.8L197.79-15.8Q199.14-14.95 201.14-14.25 203.14-13.55 203.86-13.28 204.59-13 205.79-12.35 206.99-11.7 207.59-11L207.59-11Q209.14-9.3 209.14-6.4 209.14-3.5 206.54-1.48 203.94 0.55 200.19 0.55 196.44 0.55 193.61-0.6 190.79-1.75 190.79-3.95L190.79-3.95Q190.79-6 193.84-6.65L193.84-6.65Q194.74-0.7 200.24-0.7ZM228.78-5.2L228.78-5.2Q228.78-5.05 228.73-4.85L228.73-4.85Q227.93-2.4 226.06-0.93 224.18 0.55 221.68 0.55 219.18 0.55 217.51-0.88 215.83-2.3 215.83-6.45L215.83-6.45Q215.83-7.6 216.08-23.1L216.08-23.1 212.63-23.1 212.63-24.4 216.13-24.4 216.18-31.75 221.08-31.75 220.93-24.4 228.08-24.4 228.08-23.1 220.93-23.1Q220.68-6.95 220.68-4.2L220.68-4.2Q220.68-0.85 222.88-0.85L222.88-0.85Q224.23-0.85 225.71-2.4 227.18-3.95 227.78-5.9L227.78-5.9Q228.78-5.9 228.78-5.2ZM247.08-25L247.08-25Q248.38-25 249.13-24.38 249.88-23.75 249.88-22.65L249.88-22.65Q249.88-20.75 248.43-20.15L248.43-20.15Q247.63-20.8 245.53-20.8 243.43-20.8 241.51-19.43 239.58-18.05 239.58-16.3L239.58-16.3 239.58-1.45 244.08-1.2 244.08 0 231.38 0 231.38-1.2 234.68-1.4 234.68-22.75 230.73-22.95 230.73-24.1 239.58-24.65 239.28-18.5 239.48-18.5Q240.33-21.2 242.61-23.1 244.88-25 247.08-25ZM257.38-5.4L257.38-5.4Q257.38-2.15 260.03-1.55L260.03-1.55Q260.63-1.4 261.18-1.4L261.18-1.4Q263.08-1.4 265.13-3.03 267.18-4.65 267.28-7.4L267.28-7.4 267.28-11.7Q257.38-11.6 257.38-5.4ZM259.38 0.6L259.38 0.6Q256.53 0.6 254.5-0.98 252.48-2.55 252.48-5.4L252.48-5.4Q252.53-9.25 256.35-11.15 260.18-13.05 267.28-13.05L267.28-13.05 267.28-17.35Q267.28-23.7 262.68-23.7L262.68-23.7Q260.33-23.7 258.88-21.75L258.88-21.75Q257.88-20.4 257.88-18.4L257.88-18.4Q257.88-17.55 258.08-16.6L258.08-16.6Q257.38-16.1 256.65-16.1 255.93-16.1 255.23-16.4L255.23-16.4Q253.63-17 253.63-18.7L253.63-18.7Q253.63-21 255.28-22.5L255.28-22.5Q257.98-24.95 262.73-24.95 267.48-24.95 269.63-22.93 271.78-20.9 271.78-16.55L271.78-16.55 271.78-1.4 275.98-1.2 276.03-0.05 267.68 0.55 267.23-3.9Q264.93 0.6 259.38 0.6Z" opacity="1" transform="matrix(1,0,0,1,0,0)" fill="#ffffff" class="wordmark-text-0" data-fill-palette-color="primary" id="text-0"></path></svg></g></svg></g></svg></g></svg></g><g transform="matrix(1,0,0,1,428.6423885038118,0)"><svg viewBox="0 0 203.04783477658216 203.04783477658216" height="203.04783477658216" width="203.04783477658216"><g><svg viewBox="0 0 203.04783477658216 203.04783477658216" height="203.04783477658216" width="203.04783477658216"><g transform="matrix(1,0,0,1,64.95258967355197,53.66508376303543)"><svg viewBox="0 0 73.14265542947822 95.7176672505113" height="95.7176672505113" width="73.14265542947822"><g><svg xmlns="http://www.w3.org/2000/svg" xmlns:xlink="http://www.w3.org/1999/xlink" version="1.1" x="0" y="0" viewBox="11.793 0 76.41500000000002 100" enable-background="new 0 0 100 100" xml:space="preserve" height="95.7176672505113" width="73.14265542947822" class="icon-cg-0" data-fill-palette-color="accent" id="cg-0"><g fill="#ffffff" data-fill-palette-color="accent"><g fill="#ffffff" data-fill-palette-color="accent"><path d="M88.208 2.83c0-1.542-1.287-2.83-2.831-2.83C61.792 0 38.208 0 14.623 0c-1.542 0-2.83 1.288-2.83 2.83 0 31.447 0 62.895 0 94.34 0 1.543 1.288 2.83 2.83 2.83 23.585 0 47.169 0 70.754 0 0.833 0 1.467-0.303 1.92-0.758 0.027-0.023 0.053-0.051 0.078-0.075 0.023-0.024 0.053-0.052 0.074-0.078 0.455-0.452 0.759-1.086 0.759-1.919C88.208 65.725 88.208 34.277 88.208 2.83zM82.547 94.34c-21.697 0-43.396 0-65.094 0 0-29.561 0-59.12 0-88.68 21.698 0 43.396 0 65.094 0C82.547 35.22 82.547 64.779 82.547 94.34z" fill="#ffffff" data-fill-palette-color="accent"></path></g><g fill="#ffffff" data-fill-palette-color="accent"><rect x="25.167" y="16.5" width="21.333" height="4" fill="#ffffff" data-fill-palette-color="accent"></rect></g><rect x="53.833" y="16" width="21.5" height="20" fill="#ffffff" data-fill-palette-color="accent"></rect><g fill="#ffffff" data-fill-palette-color="accent"><rect x="25.167" y="24.5" width="21.333" height="4" fill="#ffffff" data-fill-palette-color="accent"></rect></g><g fill="#ffffff" data-fill-palette-color="accent"><rect x="25.167" y="32.5" width="21.333" height="4" fill="#ffffff" data-fill-palette-color="accent"></rect></g><g fill="#ffffff" data-fill-palette-color="accent"><rect x="25.167" y="40.5" width="50.167" height="4" fill="#ffffff" data-fill-palette-color="accent"></rect></g><g fill="#ffffff" data-fill-palette-color="accent"><rect x="25.167" y="50.5" width="50.167" height="4" fill="#ffffff" data-fill-palette-color="accent"></rect></g><path d="M64.05 72.516h-2.18c-0.284-1.094-0.724-2.145-1.287-3.1l1.546-1.549c0.469-0.469 0.469-1.23 0-1.699l-2.545-2.547c-0.469-0.469-1.229-0.469-1.697 0l-1.554 1.546c-0.954-0.563-2.005-1.003-3.099-1.287V61.7c0-0.663-0.521-1.2-1.186-1.2h-3.6c-0.663 0-1.186 0.537-1.186 1.2v2.18c-1.092 0.284-2.144 0.722-3.098 1.286l-1.55-1.545c-0.469-0.469-1.23-0.469-1.699 0l-2.546 2.545c-0.469 0.469-0.469 1.229 0 1.697l1.546 1.553c-0.565 0.955-1.003 2.006-1.287 3.1h-2.18c-0.663 0-1.2 0.521-1.2 1.186v3.6c0 0.663 0.537 1.186 1.2 1.186h2.18c0.284 1.094 0.722 2.145 1.287 3.1l-1.546 1.549c-0.469 0.469-0.469 1.23 0 1.699l2.545 2.546c0.469 0.47 1.229 0.47 1.697 0.001l1.553-1.546c0.954 0.563 2.006 1.003 3.098 1.287v2.181c0 0.662 0.522 1.199 1.186 1.199h3.6c0.663 0 1.186-0.537 1.186-1.199v-2.181c1.094-0.284 2.145-0.724 3.1-1.287l1.549 1.546c0.469 0.469 1.23 0.469 1.699 0l2.546-2.545c0.47-0.469 0.47-1.229 0.001-1.697l-1.546-1.554c0.563-0.954 1.003-2.005 1.287-3.099h2.18c0.663 0 1.2-0.521 1.2-1.186v-3.6C65.25 73.037 64.713 72.516 64.05 72.516zM50.25 81.5c-3.314 0-6-2.688-6-6 0-3.314 2.686-6 6-6 3.313 0 6 2.686 6 6C56.25 78.813 53.563 81.5 50.25 81.5z" fill="#ffffff" data-fill-palette-color="accent"></path></g></svg></g></svg></g><g id="text-0"><path d="M8.198 64.942l-0.536-0.197 1.664-4.536 0.536 0.197-0.059 1.76 13.952 5.118-0.455 1.238-16.106 5.758 11.235 4.122 1.245-1.651 0.535 0.197-1.698 4.629-0.536-0.197 0.098-2.008-13.166-4.83-0.94 1.877-0.518-0.189 1.353-3.687 15.015-5.299-10.468-3.84z" fill="#ffffff" data-fill-palette-color="accent"></path><path d="M34.15 51.153c-0.996 1.311-2.242 2.029-3.737 2.153-1.501 0.121-2.98-0.373-4.437-1.48-1.463-1.111-2.317-2.427-2.562-3.948-0.249-1.516 0.114-2.916 1.091-4.201 0.972-1.28 1.988-2.02 3.046-2.222 1.064-0.197 2.111 0.096 3.14 0.878v0c0.303 0.23 0.589 0.488 0.858 0.775v0l-4.68 6.159 0.667 0.506c1.421 1.08 2.652 1.693 3.692 1.842 1.041 0.148 1.915-0.243 2.621-1.173v0c0.992-1.306 1.186-2.749 0.582-4.328v0c0.303-0.215 0.544-0.254 0.721-0.12v0c0.319 0.242 0.465 0.814 0.439 1.717v0c-0.011 0.437-0.135 0.964-0.374 1.582-0.239 0.618-0.594 1.238-1.067 1.86zM28.916 43.84v0c-0.585-0.445-1.18-0.703-1.784-0.775v0c-0.809-0.096-1.493 0.225-2.053 0.961v0c-1.04 1.369-0.657 2.92 1.148 4.655v0l3.287-4.326c-0.194-0.189-0.393-0.361-0.598-0.515z" fill="#ffffff" data-fill-palette-color="accent"></path><path d="M38.583 30.077l-0.332-0.476 4.046-2.818 0.315 0.452-1.188 1.067 7.581 4.925-1.461-5.782-2.567-1.618-0.867 0.46-0.36-0.517 3.965-2.762 0.315 0.452-1.204 1.079 7.597 4.914-2.165-8.29-1.534 0.517-0.36-0.517 3.302-2.301 0.36 0.517-0.944 1.21 2.723 11.02-0.783 0.545-6.353-4.006 1.718 7.235-0.784 0.546-10.044-6.328z" fill="#ffffff" data-fill-palette-color="accent"></path><path d="M76.258 8.883l-1.602-2.348c-0.917-0.022-1.806 0.105-2.668 0.381-0.868 0.279-1.548 0.769-2.039 1.472-0.497 0.704-0.59 1.54-0.28 2.509v0c0.303 0.943 0.938 1.535 1.904 1.776v0c0.526 0.134 0.949 0.219 1.271 0.253 0.319 0.028 0.783 0.055 1.39 0.081 0.599 0.021 1.013 0.043 1.241 0.066 0.22 0.019 0.551 0.054 0.995 0.104 0.443 0.05 0.784 0.113 1.022 0.189 0.232 0.077 0.524 0.193 0.877 0.349 0.353 0.155 0.636 0.33 0.85 0.522v0c0.532 0.518 0.915 1.143 1.149 1.874v0c0.415 1.293 0.23 2.517-0.556 3.673-0.78 1.153-2.007 1.999-3.682 2.536v0c-1.274 0.409-2.536 0.58-3.784 0.513v0c-0.608-0.025-1.142-0.154-1.601-0.385-0.462-0.237-0.766-0.584-0.913-1.04v0c-0.239-0.743 0.135-1.425 1.121-2.045v0c0.462 0.858 1.02 1.492 1.675 1.902 0.649 0.412 1.256 0.627 1.82 0.645 0.57 0.017 1.224-0.093 1.961-0.33 0.737-0.237 1.353-0.7 1.848-1.39 0.503-0.685 0.579-1.575 0.229-2.668v0c-0.269-0.837-0.87-1.399-1.803-1.685v0c-0.738-0.218-1.609-0.365-2.612-0.442-1.005-0.084-1.681-0.139-2.028-0.165-0.348-0.033-0.805-0.114-1.369-0.242-0.571-0.127-1.013-0.291-1.327-0.494v0c-0.822-0.521-1.382-1.244-1.679-2.169v0c-0.46-1.43-0.298-2.675 0.486-3.732 0.785-1.052 2.074-1.865 3.867-2.442v0c1.074-0.345 2.366-0.626 3.875-0.841v0l1.074 3.344z" fill="#ffffff" data-fill-palette-color="accent"></path><path d="M101.36 6.406v0c2.552-0.048 3.851 1.158 3.897 3.618v0c0.033 1.771 0.024 4.258-0.027 7.461v0l1.705 0.096 0.011 0.571-5.333 0.1-0.011-0.57 1.287-0.123c0.032-4.213 0.04-6.769 0.023-7.668-0.017-0.905-0.197-1.578-0.54-2.018-0.343-0.44-0.924-0.652-1.744-0.636-0.827 0.016-1.59 0.42-2.29 1.214-0.7 0.794-1.044 1.519-1.032 2.175v0l0.132 7.006 1.576 0.098 0.011 0.571-5.5 0.104-0.011-0.571 1.572-0.158-0.311-16.48-2.107-0.059-0.03-0.551 4.467-0.586c0.005 5.473 0.004 8.393-0.002 8.76v0l0.187-0.003c0.419-0.743 0.986-1.315 1.7-1.716 0.721-0.407 1.511-0.619 2.37-0.635z" fill="#ffffff" data-fill-palette-color="accent"></path><path d="M121.629 17.87v0c-0.262 1.003-0.011 1.706 0.752 2.108v0c0.179 0.094 0.351 0.163 0.515 0.206v0c0.59 0.154 1.265 0.062 2.025-0.275 0.766-0.336 1.275-0.925 1.529-1.767v0l0.52-1.99c-3.062-0.765-4.842-0.193-5.341 1.718zM121.827 20.891v0c-0.882-0.23-1.572-0.668-2.068-1.312-0.501-0.653-0.636-1.42-0.406-2.303v0c0.329-1.182 1.16-1.911 2.494-2.187 1.335-0.282 3.097-0.137 5.287 0.434v0l0.519-1.99c0.512-1.962 0.057-3.128-1.364-3.499v0c-0.724-0.189-1.386-0.04-1.989 0.447v0c-0.42 0.338-0.711 0.815-0.871 1.431v0c-0.068 0.26-0.109 0.548-0.124 0.862v0c-0.256 0.096-0.498 0.114-0.726 0.055-0.222-0.058-0.429-0.163-0.62-0.314v0c-0.447-0.313-0.603-0.73-0.467-1.251v0c0.186-0.711 0.593-1.232 1.222-1.563v0c1.035-0.537 2.286-0.614 3.752-0.231 1.466 0.383 2.448 0.971 2.947 1.766 0.502 0.802 0.579 1.873 0.229 3.213v0l-1.832 7.018 1.917 0.602-0.11 0.541-3.938-0.733 0.33-2.121c-1.074 1.205-2.468 1.583-4.182 1.135z" fill="#ffffff" data-fill-palette-color="accent"></path><path d="M144.295 29.11v0c0.556 0.309 1.127 0.423 1.712 0.343 0.576-0.078 1.065-0.478 1.466-1.201v0c0.274-0.493 0.282-1.022 0.024-1.585-0.267-0.561-0.655-1.151-1.166-1.773-0.511-0.621-0.853-1.051-1.028-1.291-0.172-0.231-0.379-0.567-0.622-1.009v0c-0.434-0.841-0.41-1.695 0.07-2.561 0.481-0.866 1.224-1.395 2.232-1.586 0.998-0.189 2.151 0.079 3.458 0.805v0c0.838 0.465 1.453 1.046 1.846 1.744 0.387 0.695 0.437 1.301 0.151 1.817-0.287 0.516-0.679 0.764-1.178 0.743v0c-0.266-0.02-0.5-0.086-0.7-0.198-0.201-0.111-0.376-0.261-0.527-0.45v0c0.197-0.221 0.377-0.477 0.54-0.77 0.162-0.293 0.253-0.625 0.272-0.997v0c0.045-0.635-0.268-1.139-0.94-1.511-0.671-0.372-1.281-0.471-1.829-0.295-0.55 0.167-0.988 0.543-1.312 1.129v0c-0.334 0.602-0.333 1.188 0.003 1.757v0c0.248 0.445 0.596 0.92 1.045 1.424 0.454 0.507 0.761 0.854 0.92 1.04 0.156 0.192 0.351 0.469 0.585 0.831 0.237 0.371 0.384 0.701 0.442 0.988v0c0.166 0.715 0.025 1.477-0.424 2.286-0.449 0.809-1.191 1.294-2.226 1.455-1.038 0.167-2.082-0.041-3.131-0.624-1.044-0.579-1.873-1.249-2.486-2.01-0.608-0.757-0.741-1.443-0.401-2.057v0c0.318-0.574 0.951-0.714 1.899-0.42v0c-0.668 1.798-0.233 3.124 1.305 3.976z" fill="#ffffff" data-fill-palette-color="accent"></path><path d="M165.043 42.314v0c-0.031 0.034-0.076 0.068-0.136 0.102v0c-0.719 0.397-1.458 0.566-2.217 0.505-0.759-0.061-1.429-0.361-2.01-0.902-0.586-0.545-0.92-1.169-1.001-1.872-0.081-0.693 0.33-1.525 1.233-2.495v0c0.25-0.269 2.087-2.185 5.509-5.749v0l-1.211-1.126 0.429-0.461 1.232 1.146 2.408-2.559 1.715 1.595-2.444 2.525 2.508 2.333-0.429 0.461-2.508-2.332c-3.565 3.717-5.647 5.898-6.246 6.541v0c-0.728 0.783-0.836 1.414-0.321 1.892v0c0.317 0.295 0.816 0.418 1.496 0.371 0.681-0.039 1.303-0.221 1.867-0.548v0c0.235 0.219 0.277 0.41 0.126 0.573z" fill="#ffffff" data-fill-palette-color="accent"></path><path d="M185.111 52.914v0c0.229 0.344 0.325 0.67 0.287 0.979-0.029 0.311-0.188 0.563-0.478 0.757v0c-0.508 0.339-0.97 0.367-1.386 0.085v0c0.033-0.329-0.137-0.772-0.508-1.33-0.371-0.557-0.911-0.97-1.619-1.238-0.704-0.264-1.288-0.241-1.752 0.068v0l-5.911 3.943 1.089 1.864-0.475 0.317-3.374-5.06 0.474-0.317 0.956 1.256 8.498-5.669-0.966-1.626 0.458-0.306 2.575 3.381-2.53 1.51 0.054 0.082c0.864-0.253 1.75-0.244 2.656 0.027 0.912 0.267 1.562 0.693 1.952 1.277z" fill="#ffffff" data-fill-palette-color="accent"></path><path d="M184.285 72.659v0c-0.978 0.342-1.422 0.943-1.33 1.8v0c0.022 0.201 0.061 0.382 0.117 0.543v0c0.202 0.576 0.654 1.085 1.358 1.526 0.706 0.448 1.479 0.542 2.319 0.283v0l1.942-0.679c-1.074-2.968-2.542-4.125-4.406-3.473zM181.888 74.509v0c-0.301-0.861-0.323-1.677-0.065-2.448 0.262-0.78 0.824-1.321 1.685-1.622v0c1.164-0.387 2.233-0.104 3.206 0.848 0.979 0.95 1.842 2.493 2.59 4.63v0l1.941-0.68c1.913-0.67 2.627-1.698 2.142-3.085v0c-0.247-0.706-0.741-1.173-1.481-1.4v0c-0.515-0.16-1.073-0.135-1.673 0.075v0c-0.254 0.089-0.516 0.215-0.785 0.379v0c-0.222-0.159-0.372-0.349-0.45-0.572-0.076-0.217-0.104-0.447-0.085-0.69v0c0.011-0.546 0.27-0.908 0.777-1.085v0c0.694-0.243 1.353-0.196 1.979 0.141v0c1.023 0.559 1.785 1.554 2.285 2.985 0.501 1.43 0.56 2.574 0.179 3.43-0.385 0.865-1.231 1.526-2.538 1.983v0l-6.846 2.397 0.571 1.927-0.511 0.21-1.589-3.677 1.944-0.91c-1.599-0.219-2.691-1.164-3.276-2.836z" fill="#ffffff" data-fill-palette-color="accent"></path><path d="M28.295 138.442l0.616-0.235 1.978 5.175-0.616 0.235-1.273-1.567-15.921 6.087-0.538-1.406 9.585-17.119-12.814 4.899 0.169 2.369-0.616 0.236-2.017-5.277 0.616-0.235 1.427 1.804 15.02-5.743-0.597-2.332 0.588-0.225 1.606 4.201-8.996 15.903 11.95-4.568z" fill="#ffffff" data-fill-palette-color="accent"></path><path d="M24.772 166.9c-1.161-1.483-1.591-3.075-1.29-4.777 0.295-1.698 1.27-3.194 2.923-4.488 1.658-1.298 3.367-1.861 5.126-1.69 1.761 0.163 3.211 0.973 4.352 2.43 1.141 1.457 1.664 2.801 1.57 4.032-0.094 1.232-0.724 2.305-1.892 3.219v0c-0.346 0.271-0.714 0.514-1.105 0.728v0l-5.466-6.981-0.759 0.594c-1.612 1.262-2.649 2.449-3.112 3.561-0.472 1.111-0.295 2.193 0.531 3.247v0c1.161 1.483 2.705 2.119 4.632 1.91v0c0.149 0.392 0.122 0.667-0.079 0.824v0c-0.362 0.283-1.039 0.28-2.032-0.008v0c-0.479-0.133-1.028-0.424-1.646-0.874-0.614-0.444-1.198-1.02-1.753-1.727zM34.417 163.223v0c0.661-0.518 1.122-1.1 1.383-1.746v0c0.34-0.875 0.183-1.73-0.473-2.567v0c-1.217-1.555-3.051-1.582-5.5-0.08v0l3.841 4.904c0.267-0.159 0.517-0.33 0.749-0.511z" fill="#ffffff" data-fill-palette-color="accent"></path><path d="M45.148 169.618l0.368-0.547 4.691 3.146-0.351 0.523-1.624-0.829-2.119 10.156 5.565-3.969 0.681-3.418-0.869-0.737 0.401-0.597 4.609 3.092-0.351 0.523-1.649-0.845-2.094 10.172 7.964-5.761-1.197-1.431 0.4-0.597 3.833 2.571-0.4 0.597-1.68-0.499-10.644 7.495-0.915-0.614 1.639-8.451-7.017 4.844-0.915-0.614 2.592-13.369z" fill="#ffffff" data-fill-palette-color="accent"></path><path d="M82.868 186.964l0.006-3.266c-0.842-0.616-1.763-1.075-2.762-1.376-0.999-0.301-1.961-0.278-2.887 0.067-0.924 0.339-1.555 1.07-1.894 2.195v0c-0.327 1.087-0.112 2.059 0.644 2.917v0c0.408 0.465 0.755 0.816 1.04 1.052 0.283 0.243 0.702 0.571 1.256 0.985 0.554 0.413 0.93 0.701 1.127 0.863 0.196 0.169 0.487 0.42 0.872 0.756 0.386 0.335 0.665 0.614 0.838 0.837 0.173 0.223 0.373 0.523 0.602 0.901 0.237 0.373 0.392 0.724 0.464 1.054v0c0.168 0.832 0.125 1.668-0.128 2.51v0c-0.448 1.489-1.418 2.526-2.909 3.112-1.496 0.578-3.208 0.576-5.138-0.004v0c-1.47-0.442-2.772-1.101-3.906-1.976v0c-0.56-0.415-0.981-0.884-1.262-1.408-0.281-0.523-0.342-1.048-0.184-1.576v0c0.257-0.854 1.056-1.255 2.396-1.201v0c-0.129 1.112-0.018 2.074 0.335 2.886 0.346 0.81 0.783 1.407 1.311 1.792 0.52 0.389 1.204 0.712 2.052 0.966 0.854 0.257 1.742 0.223 2.662-0.103 0.92-0.326 1.57-1.121 1.95-2.383v0c0.289-0.961 0.087-1.882-0.608-2.763v0c-0.556-0.681-1.285-1.387-2.189-2.117-0.897-0.729-1.497-1.218-1.799-1.467-0.306-0.257-0.687-0.631-1.142-1.124-0.456-0.487-0.768-0.93-0.936-1.33v0c-0.437-1.029-0.495-2.078-0.173-3.146v0c0.495-1.646 1.457-2.713 2.884-3.201 1.428-0.488 3.176-0.422 5.243 0.2v0c1.244 0.374 2.646 0.95 4.208 1.728v0l-1.163 3.864z" fill="#ffffff" data-fill-palette-color="accent"></path><path d="M103.441 189.456v0c2.926 0.001 4.389 1.412 4.388 4.232v0c-0.001 2.034-0.067 4.888-0.199 8.562v0l1.948 0.138 0 0.66-6.121-0.002 0-0.659 1.486-0.108c0.132-4.829 0.199-7.761 0.199-8.798 0-1.037-0.193-1.811-0.58-2.323-0.387-0.512-1.05-0.768-1.988-0.768-0.945 0-1.827 0.449-2.647 1.348-0.827 0.899-1.24 1.722-1.241 2.47v0l-0.002 8.04 1.811 0.138 0 0.66-6.309-0.002 0.001-0.659 1.81-0.138 0.005-18.905-2.421-0.118-0.019-0.63 5.127-0.57c-0.113 6.272-0.176 9.618-0.189 10.038v0l0.216 0c0.492-0.84 1.155-1.482 1.989-1.928 0.833-0.452 1.745-0.679 2.736-0.678z" fill="#ffffff" data-fill-palette-color="accent"></path><path d="M124.541 197.428v0c0.318 1.144 0.975 1.693 1.971 1.647v0c0.223-0.007 0.432-0.038 0.628-0.093v0c0.67-0.186 1.285-0.667 1.845-1.443 0.562-0.769 0.727-1.646 0.494-2.63v0l-0.633-2.275c-3.478 1.009-4.913 2.607-4.305 4.794zM126.475 200.301v0c-1.005 0.28-1.938 0.243-2.799-0.11-0.869-0.357-1.443-1.039-1.723-2.043v0c-0.366-1.362 0.035-2.567 1.201-3.613 1.16-1.045 2.991-1.915 5.494-2.612v0l-0.633-2.276c-0.623-2.237-1.746-3.13-3.37-2.678v0c-0.828 0.23-1.399 0.76-1.713 1.59v0c-0.222 0.573-0.235 1.213-0.038 1.921v0c0.083 0.297 0.205 0.603 0.368 0.919v0c-0.197 0.246-0.425 0.404-0.684 0.477-0.253 0.07-0.517 0.086-0.794 0.047v0c-0.621-0.052-1.014-0.378-1.182-0.979v0c-0.225-0.809-0.121-1.56 0.313-2.253v0c0.707-1.13 1.898-1.928 3.573-2.393 1.675-0.466 2.991-0.448 3.949 0.055 0.957 0.503 1.65 1.523 2.077 3.059v0l2.229 8.011 2.248-0.513 0.197 0.599-4.329 1.552-0.894-2.295c-0.368 1.812-1.531 2.99-3.49 3.535z" fill="#ffffff" data-fill-palette-color="accent"></path><path d="M151.002 189.488v0c0.639-0.363 1.093-0.851 1.363-1.465 0.267-0.619 0.165-1.343-0.305-2.17v0c-0.314-0.553-0.825-0.874-1.532-0.963-0.709-0.08-1.52-0.053-2.433 0.081-0.916 0.128-1.539 0.207-1.869 0.236-0.33 0.029-0.789 0.033-1.375 0.011v0c-1.074-0.084-1.891-0.619-2.452-1.606-0.561-0.987-0.638-2.026-0.232-3.116 0.409-1.1 1.36-2.075 2.855-2.925v0c0.953-0.541 1.888-0.794 2.807-0.757 0.913 0.04 1.536 0.353 1.87 0.94 0.337 0.593 0.346 1.127 0.028 1.603v0c-0.178 0.245-0.381 0.432-0.609 0.562-0.228 0.13-0.481 0.209-0.759 0.238v0c-0.099-0.321-0.243-0.647-0.431-0.977-0.191-0.337-0.462-0.628-0.813-0.874v0c-0.598-0.415-1.276-0.407-2.035 0.025-0.764 0.434-1.228 0.973-1.391 1.616-0.166 0.638-0.059 1.29 0.321 1.958v0c0.389 0.684 0.967 1.031 1.734 1.04v0c0.58 0.025 1.25-0.031 2.01-0.168 0.765-0.141 1.288-0.23 1.568-0.269 0.282-0.047 0.673-0.077 1.172-0.089 0.499-0.012 0.906 0.04 1.22 0.156v0c0.804 0.26 1.469 0.852 1.994 1.775 0.525 0.924 0.557 1.943 0.097 3.058-0.461 1.115-1.287 2.011-2.48 2.688-1.198 0.681-2.348 1.093-3.451 1.238-1.112 0.141-1.866-0.136-2.261-0.832v0c-0.373-0.656-0.133-1.362 0.72-2.119v0c1.367 1.728 2.923 2.097 4.669 1.105z" fill="#ffffff" data-fill-palette-color="accent"></path><path d="M170.6 171.146v0c0.036 0.038 0.071 0.091 0.106 0.157v0c0.399 0.858 0.532 1.717 0.402 2.575-0.131 0.868-0.529 1.614-1.196 2.237-0.671 0.628-1.408 0.958-2.212 0.992-0.804 0.043-1.727-0.491-2.767-1.603v0c-0.287-0.307-2.333-2.561-6.139-6.762v0l-1.379 1.291-0.491-0.525 1.401-1.311-2.735-2.966 1.962-1.836 2.699 3 2.867-2.683 0.491 0.525-2.867 2.683c3.967 4.374 6.296 6.93 6.986 7.668v0c0.838 0.896 1.552 1.068 2.141 0.516v0c0.359-0.336 0.54-0.896 0.543-1.68 0.012-0.784-0.147-1.511-0.477-2.182v0c0.268-0.251 0.49-0.283 0.665-0.096z" fill="#ffffff" data-fill-palette-color="accent"></path><path d="M174.208 148.576v0c0.264-0.391 0.566-0.639 0.905-0.743 0.344-0.1 0.685-0.036 1.022 0.192v0c0.576 0.389 0.806 0.865 0.688 1.426v0c-0.357 0.107-0.753 0.481-1.186 1.123-0.43 0.636-0.631 1.387-0.605 2.251 0.02 0.861 0.297 1.471 0.83 1.831v0l6.753 4.559 1.496-1.97 0.547 0.369-3.904 5.783-0.547-0.369 0.924-1.561-9.714-6.559-1.302 1.734-0.521-0.353 2.467-4.199 2.704 2.027 0.061-0.09c-0.648-0.81-1.025-1.753-1.13-2.829-0.11-1.08 0.061-1.954 0.512-2.622z" fill="#ffffff" data-fill-palette-color="accent"></path><path d="M190.317 139.838v0c1.116 0.405 1.945 0.19 2.486-0.647v0c0.123-0.186 0.22-0.374 0.289-0.566v0c0.237-0.654 0.203-1.434-0.103-2.34-0.3-0.905-0.918-1.548-1.854-1.93v0l-2.22-0.806c-1.199 3.418-0.731 5.514 1.402 6.289zM193.78 139.933v0c-0.356 0.981-0.928 1.719-1.715 2.214-0.796 0.5-1.684 0.572-2.665 0.216v0c-1.321-0.494-2.069-1.519-2.244-3.076-0.177-1.551 0.178-3.547 1.065-5.989v0l-2.22-0.806c-2.183-0.793-3.562-0.396-4.138 1.188v0c-0.293 0.808-0.193 1.58 0.3 2.318v0c0.337 0.513 0.851 0.895 1.542 1.146v0c0.29 0.105 0.611 0.183 0.962 0.234v0c0.085 0.303 0.082 0.581-0.01 0.834-0.09 0.247-0.23 0.471-0.423 0.674v0c-0.403 0.475-0.897 0.606-1.482 0.393v0c-0.789-0.287-1.34-0.808-1.653-1.563v0c-0.509-1.232-0.467-2.665 0.127-4.299 0.593-1.634 1.373-2.695 2.338-3.182 0.966-0.487 2.198-0.459 3.696 0.086v0l7.817 2.837 0.887-2.127 0.602 0.187-1.25 4.425-2.387-0.605c1.261 1.351 1.545 2.983 0.851 4.895z" fill="#ffffff" data-fill-palette-color="accent"></path><path d="M2.602 104.431c0-3.868 3.136-7.004 7.003-7.003 3.868 0 7.004 3.136 7.004 7.003 0 3.868-3.136 7.004-7.004 7.004-3.868 0-7.004-3.136-7.003-7.004z" fill="#ffffff" data-fill-palette-color="accent"></path><path d="M186.439 104.431c0-3.868 3.136-7.004 7.004-7.003 3.868 0 7.004 3.136 7.003 7.003 0 3.868-3.136 7.004-7.003 7.004-3.868 0-7.004-3.136-7.004-7.004z" fill="#ffffff" data-fill-palette-color="accent"></path></g><g id="text-1"></g></svg></g></svg></g></svg></g><defs></defs></svg><rect width="395.52" height="127.13427666140419" fill="none" stroke="none" visibility="hidden"></rect></g></svg></g></svg>